<svg width="10" height="8" viewBox="0 0 10 8" fill="none" xmlns="http://www.w3.org/2000/svg">
<path fill-rule="evenodd" clip-rule="evenodd" d="M0 4C0 3.84848 0.0658408 3.70316 0.183038 3.59601C0.300235 3.48887 0.459188 3.42867 0.62493 3.42867H7.86537L5.18192 0.976546C5.06458 0.869266 4.99865 0.723764 4.99865 0.572047C4.99865 0.420331 5.06458 0.274829 5.18192 0.167549C5.29927 0.0602692 5.45842 0 5.62437 0C5.79032 0 5.94948 0.0602692 6.06682 0.167549L9.8164 3.5955C9.8746 3.64857 9.92077 3.71162 9.95228 3.78103C9.98378 3.85044 10 3.92485 10 4C10 4.07515 9.98378 4.14956 9.95228 4.21897C9.92077 4.28838 9.8746 4.35143 9.8164 4.4045L6.06682 7.83245C5.94948 7.93973 5.79032 8 5.62437 8C5.45842 8 5.29927 7.93973 5.18192 7.83245C5.06458 7.72517 4.99865 7.57967 4.99865 7.42795C4.99865 7.27624 5.06458 7.13073 5.18192 7.02345L7.86537 4.57133H0.62493C0.459188 4.57133 0.300235 4.51113 0.183038 4.40399C0.0658408 4.29684 0 4.15153 0 4Z" fill="#B9B9B9"/>
</svg>
